<svg xmlns="http://www.w3.org/2000/svg" viewBox="0 0 615.59 172.42"><defs><style>.cls-1{fill:#fff;}</style></defs><title>Asset 1-8</title><g id="Layer_2" data-name="Layer 2"><g id="Layer_1-2" data-name="Layer 1"><path class="cls-1" d="M5.81,169.19c-2,1.09-4.2-.78-4.21-3.36a6,6,0,0,1,.93-3.16c18.32-31.25,37.53-72.42,68.58-92.81,13.1-8.6,27.43-2.12,27.12,14.75-.59,31.84-25,70-48.71,91.37a42.23,42.23,0,0,1,9.32-4.43c7.54-2.2,12.73,1.1,13.07,10.14C73.16,214.53,35,238.86,5.25,238.49c-3.85,0-5.25-1-5.25-2.85a43.41,43.41,0,0,1,.89-4.7c7.1-28.56,17-56.76,26.36-84.67,1.4-4.31,6-8.71,10-11,3.74-2.1,7.16-2.3,7.28.51a5.61,5.61,0,0,1-.47,2.29c-5.24,15.28-10.17,30.65-15,46.07,24.79-20.7,51.78-55.24,50.44-89-.35-8.77-5.82-11.63-11.9-8-27.48,16.46-43.54,54.51-60.19,80.47A4.62,4.62,0,0,1,5.81,169.19Zm20,25.43c-3.38,11-6.93,22-9.53,33.28C34,224.43,53.74,209,53.71,190.48c0-3.76-2.2-6.16-6.26-5.12-3.77,1-9.29,4.76-16.63,11.68a3.49,3.49,0,0,1-1.14.64C28.09,198,26.73,196.54,25.8,194.62Z" transform="translate(0 -66.07)"/><path class="cls-1" d="M98.79,198.39c-6.89,13.17-13.66,26.4-24.09,37.19a2.79,2.79,0,0,1-2.19,1.13c-2.25,0-3.77-3.47-3.94-6.75a6.18,6.18,0,0,1,.86-3.77A207.25,207.25,0,0,0,91.6,192.8a5.76,5.76,0,0,1-1.14-1.75,19.37,19.37,0,0,1-2.76-9.59c-.47-8.75,3.63-18.68,10-20.2,5.33-1.27,8.39,2.36,8.76,9.15a36,36,0,0,1-.39,6.66,47.65,47.65,0,0,1,7.1,3.4c2.79,1.58,4,4.46,4,7.69.14,9.74-4.87,19.24-5.36,29.3,14.64-10.84,25.08-27.53,34-43.1a1.6,1.6,0,0,1,1-1c1.36-.18,2.33,4.17,2.54,8.62.15,3.06-.17,5.89-.86,7.35-9.23,15.27-26.39,44.33-43.21,46.39-3.3.4-6-3.36-6.42-10.66-.34-6.33,4.31-17.5,5.6-24.15C102.31,199.69,100.33,199.19,98.79,198.39Z" transform="translate(0 -66.07)"/><path class="cls-1" d="M165.68,196.94a38.36,38.36,0,0,1-4.75-17.63c-.59-12.8,3.73-18.56,7.68-19.08,4.86-.64,8.46,4.8,9,17.38A81.15,81.15,0,0,1,177,189.7a10.21,10.21,0,0,0,3,.06c6.51-.49,12.65-6.52,19.28-17.67,1.87-3.18,2.17-3.52,2.48-3.54,1.07-.09,1.66,3.81,1.81,8.06.14,3.94-.17,8.22-1,9.79-4,8.39-13.49,18.62-23.24,19.28a11.89,11.89,0,0,1-5.5-1.17c-4.58,12.1-11.15,31.12-25.19,31.76-10.8.5-16-14-16.37-23.7-.61-17,7.06-47.72,24.71-51.89,1.5-.35,2.82,1.6,3,5.58a13,13,0,0,1-3.79,10.16c-7.16,7.62-8.93,18.07-9.15,27.25-.14,5.9,2.7,12.06,6.46,11.88C159.26,215.3,163.11,207.19,165.68,196.94Z" transform="translate(0 -66.07)"/><path class="cls-1" d="M254.44,192.48a42.72,42.72,0,0,1-3.21-16.07c-.24-12,3.7-23.67,9.88-23.93,3.86-.17,7.49,5.14,7.63,15.69a72.76,72.76,0,0,1-2.07,16.68,13.34,13.34,0,0,0,3.83.55c8.84-.79,17.35-12.15,21.28-20q.46-1,.92-1c1.08,0,1.56,4.49,1.58,9,0,4.18-.42,8.37-1.18,9.67-6,8.41-12.88,19-23.9,19.57a16.63,16.63,0,0,1-7.31-1.47c-5.39,12.47-13.92,34.16-29.15,35.09-4.65.28-8.77-7.41-9.14-20.11a86.84,86.84,0,0,1,.57-11.8c-3.49,10.93-10.64,30.92-22.8,32-3.15.27-8.9-8.06-9.15-15.49-.68-20.39,3.49-40.6,8.26-60.42,1.07-4.35,3.63-6.14,6.23-6.39,4.45-.43,9.35,3.77,9.5,8.69a16.6,16.6,0,0,1-.48,4.35c-3.28,15.66-6.61,32.15-6.66,48.2,13.85-14.66,17.46-39,21.91-57.68,1-4.13,3.55-5.89,6.17-6.06,4.47-.3,9.35,4.16,9.46,9.53a11.42,11.42,0,0,1-.39,3.18c-3.6,17.22-7.76,35.21-7.79,52.87C247.62,212.74,251.12,201,254.44,192.48Z" transform="translate(0 -66.07)"/><path class="cls-1" d="M364.44,164.69c.71-.31,2.33,6.44,2.27,9.29-.12,5.69-.61,7.25-2.65,10-9.85,13.68-29.73,49.72-48.45,50.93-3.5.23-6.06-4.72-5.85-14.18.25-11.53,3.41-23.28,5.68-34.79-10.41,15.06-18.94,46.15-30,50.27-1.56.58-8-5.9-7.93-11.22.29-22.95,8.21-47.08,14.38-69.57,1.21-4.52,3.84-6.17,6.47-6.19,4.49,0,9.29,4.79,9.29,10.27,0,.64,0,1.31-1.08,5.8-2.72,11.2-6.09,22.33-9,33.54,7.13-14.59,18.59-45,31.54-47.83,2.2-.48,6.3,6.59,6.22,13-.2,15.44-5.73,30.62-8,45.84C343.36,197.74,354.59,169,364.44,164.69Z" transform="translate(0 -66.07)"/><path class="cls-1" d="M345.43,194.36c0-1.92,1.74-5.09,5.33-10.11,8.86-13.06,24.82-41.64,27.42-41.49,3.4.21,6.5,33.82,6.35,46.75a149.88,149.88,0,0,1-1,15.58c12.11-11.2,22.33-24.4,31.66-37.95.48-.57.8-.84,1.1-.81,1.37.12,2,4.41,1.82,8.93-.13,3.61-.73,7.49-2,9.22-11.38,16.14-32.38,51-51.72,52.74-6.64.61-12-8.61-11.85-19.13.14-8.92,5.11-15.53,10-15.42,3,.07,6,2.67,7.7,9a117.08,117.08,0,0,0,2-20.44,142.5,142.5,0,0,0-.66-18.32c-5.27,8.15-12.72,22.94-22.58,23.74C346.85,196.83,345.41,196,345.43,194.36Z" transform="translate(0 -66.07)"/><path class="cls-1" d="M434.66,195.59a37.68,37.68,0,0,1-2.53-16.15c.43-10.63,4.8-20.21,11-19.41s7.64,10.23,7.36,16.54a57,57,0,0,1-2.58,13.6,7.3,7.3,0,0,0,3.45.87c8.46.72,16.93-8.57,21.93-14.8a.79.79,0,0,1,.93-.43c1.05.14,1.18,3.73,1,7.55-.18,3.55-.65,7.06-1.46,8.08-6,7.88-15.09,14.93-24.6,14.95a16.41,16.41,0,0,1-7-1.84c-6.05,12.64-18.63,30.95-32.89,31.83-3.65.22-8.28-9.24-8-16,.71-20.55,6.2-40.57,12.51-60.06,1.37-4.12,4-5.36,6.63-5.08,4.44.48,9,5.49,8.81,10.23a12.26,12.26,0,0,1-.76,3.8c-4.53,15-8.78,30.69-10,46.38C425,213.15,430.42,206.51,434.66,195.59Z" transform="translate(0 -66.07)"/><path class="cls-1" d="M513.69,180.82c.76-.2,2.11,5.33,2,7.54-.24,4.42-.75,5.58-2.81,7.56-11.7,11.67-32,38.67-49.54,39.51-3.54.17-5.82-4.15-5.27-12.43.67-10,3.92-20.21,7-29.91,2.16-6.78,5.27-18.12,8-24.08,1.37-3.12,3.42-4.71,6-4.29,2.86.47,8.11,3.79,7.58,8.81-1.39,13.22-7.67,27.09-10.68,40.8C490.92,205.57,504.34,183.32,513.69,180.82Zm-17.36-71.06c3.68.73,7.83,8.45,6.77,15.6s-5.72,22-14.77,21.33c-3.83-.3-7.21-7.13-6.64-15.93C482.18,123.1,487.5,108,496.33,109.76Z" transform="translate(0 -66.07)"/><path class="cls-1" d="M548.45,189.85c1.72-1.65,2-1.58,2.3-1.52,1.47.3,2.32,4,2.15,7.39-.11,2.15-.65,4.22-1.74,5.14-13.54,11.57-32.54,33.5-49.87,34.83-3.84.29-5.94-4.83-5.25-11.41,2.69-25.36,16.15-53.65,26.57-78.31,6.71-15.14,27.2-65,38.14-62.8,1.87.37,4.18,9.55,3.78,13.7-2.64,27.32-26.36,59.77-40.52,84.35a336.8,336.8,0,0,0-12.79,37.21C525,210.3,536.63,200.62,548.45,189.85Z" transform="translate(0 -66.07)"/><path class="cls-1" d="M585.47,197.76c1.65-1.28,1.93-1.2,2.22-1.13,1.44.35,2.36,3.46,2.28,6.31-.05,1.78-.54,3.48-1.59,4.2C574.33,217,556,235,539.37,236c-3.88.25-5.94-4.32-5.31-10.16,2.36-22,15.56-46.78,25.54-67.77,6.19-12.17,25.86-51.21,35.33-48.17,1.9.61,4.15,9,3.81,12.26-2.15,21.26-24.85,47.88-37.38,66.72a248.45,248.45,0,0,0-12.24,32C562.36,215.11,574,206.45,585.47,197.76Z" transform="translate(0 -66.07)"/><path class="cls-1" d="M574.19,216.36c1.44-14.12,13.59-27.35,28-23.41,7.19,2,11.86,7.36,11.55,13-.58,10.33-14.84,14.44-23.75,15.83,1.39,3,4.33,4.25,7.73,4.51a23.93,23.93,0,0,0,8.6-1.1c4.06-1.27,5.47-2.12,6.93-2s2.34,1.17,2.34,3.27-.29,3-2.37,4.06c-5.05,2.76-14.78,5.85-22,6C579.84,236.78,573.08,227.26,574.19,216.36ZM589.81,213c8.84-.82,12.39-5.22,12.45-8.69a3.41,3.41,0,0,0-2.38-3.59C595.44,199.59,591.1,204.2,589.81,213Z" transform="translate(0 -66.07)"/></g></g></svg>