<svg xmlns="http://www.w3.org/2000/svg" viewBox="0 0 82.02 79.66"><defs><style>.cls-1{fill:#fff;}</style></defs><title>location</title><g id="Layer_2" data-name="Layer 2"><g id="Layer_1-2" data-name="Layer 1"><path class="cls-1" d="M41,0A24.07,24.07,0,0,0,17,24.06c0,2.52,1.21,5.83,3,9.74s4.26,8.34,6.85,12.77c5.19,8.87,11,17.8,13.29,22.16a1,1,0,0,0,1.77,0c2.32-4.36,8.11-13.28,13.3-22.16,2.59-4.44,5-8.87,6.86-12.77s3-7.21,3-9.74A24.08,24.08,0,0,0,41,0Zm0,2A22,22,0,0,1,63.06,24.06c0,1.82-1.07,5.09-2.84,8.89S56,41.15,53.45,45.56C48.84,53.45,43.77,61.34,41,66.2c-2.76-4.86-7.83-12.75-12.44-20.63-2.58-4.41-5-8.8-6.77-12.61S19,25.88,19,24.06A22,22,0,0,1,41,2Z"/><path class="cls-1" d="M41,8.27A15.06,15.06,0,1,0,56.07,23.33,15.08,15.08,0,0,0,41,8.27Zm0,2A13.06,13.06,0,1,1,27.94,23.33,13,13,0,0,1,41,10.27Z"/><path class="cls-1" d="M16.37,60.48a1,1,0,0,0-.53.31L.27,78A1,1,0,0,0,1,79.66H81A1,1,0,0,0,81.74,78L66.18,60.79a1,1,0,0,0-.75-.31h-13a1,1,0,1,0,0,2H65L78.74,77.66H3.27L17,62.48H29.59a1,1,0,1,0,0-2H16.37Z"/></g></g></svg>