<svg xmlns="http://www.w3.org/2000/svg" viewBox="0 0 657.53 108.13"><defs><style>.cls-1{fill:#c02032;}.cls-2,.cls-4,.cls-7{fill:#212f64;}.cls-3{font-size:89.5px;fill:#223064;font-family:Abolition-Regular, Abolition;}.cls-4{letter-spacing:0em;}.cls-5{fill:#c02234;}.cls-6{fill:#c02133;}.cls-7{letter-spacing:-0.01em;}.cls-8,.cls-9{fill:#213164;}.cls-8{letter-spacing:-0.03em;}.cls-9{letter-spacing:0em;}</style></defs><title>tugofwar</title><g id="Layer_2" data-name="Layer 2"><g id="Layer_1-2" data-name="Layer 1"><path class="cls-1" d="M123.67,66.7a10.56,10.56,0,0,0,6.42-2.28,10.81,10.81,0,0,0,4.14-8.29h49.92V52h-35L152,40a10.06,10.06,0,0,0-2.9-9.74l-7.46-7.46a10.46,10.46,0,0,0-8.29-3.11,16.15,16.15,0,0,0,.62-4.56,15.12,15.12,0,0,0-30.24,0,14.83,14.83,0,0,0,6.42,12.22l-4.14,4.14c-.41-.41-.62-1-1.24-1.45l-7-7.25a10.89,10.89,0,0,0-9.53-2.9,17.62,17.62,0,0,0,.83-4.56,15.12,15.12,0,0,0-30.24,0,14.83,14.83,0,0,0,6.42,12.22l-5,5a15.81,15.81,0,0,0-1.66-2.28L51,22.79a10.46,10.46,0,0,0-8.29-3.11,16.15,16.15,0,0,0,.62-4.56,15.12,15.12,0,0,0-30.24,0,14.83,14.83,0,0,0,6.42,12.22L11,35.84A10,10,0,0,0,8.49,46.61l1.66,5.18c-2.49.21-5.39.83-7.46,2.69a7.82,7.82,0,0,0-2.69,6V80H4.14V60.49a3.76,3.76,0,0,1,1.24-2.9c1.45-1.24,3.94-1.66,6-1.66l.21.83a10.34,10.34,0,0,0,7.46,6.84l1.45.41,5.18,15.33a5.29,5.29,0,0,0,2.49,3.11L45.57,94a2.86,2.86,0,0,1,.62.83l5,9.74a6,6,0,0,0,5.39,3.31H63a6,6,0,0,0,6-6v-.41h.41a6,6,0,0,0,6-6v-5a6,6,0,0,0-6-6,1.64,1.64,0,0,1-1.66-1L62.56,73.33a4.34,4.34,0,0,0-1.24-1.66L48.89,59.24l-2.49,2.9L58.83,74.57c.21.21.21.41.41.41l5.18,10.15a6,6,0,0,0,5.39,3.31,1.86,1.86,0,0,1,1.86,1.86v5a1.86,1.86,0,0,1-1.86,1.86h-.41v-.41a6,6,0,0,0-6-6,1.64,1.64,0,0,1-1.66-1L56.55,79.54a7.27,7.27,0,0,0-1-1.66l-6.21-5.8L46.4,75l6,6c.21.21.21.41.41.41L58,91.56a6,6,0,0,0,5.39,3.31,1.86,1.86,0,0,1,1.86,1.86v5a1.86,1.86,0,0,1-1.86,1.86H57a1.64,1.64,0,0,1-1.66-1l-5-9.74a5.51,5.51,0,0,0-2.07-2.28L30.66,79.13a2.07,2.07,0,0,1-.83-1L25.48,65.25,30,66.49a10.5,10.5,0,0,0,2.69.41,10.56,10.56,0,0,0,6.42-2.28,10.81,10.81,0,0,0,4.14-8.29H57l.21.62a10.34,10.34,0,0,0,7.46,6.84l1.45.41,5.18,15.33a5.29,5.29,0,0,0,2.49,3.11l17.4,11.6a2.86,2.86,0,0,1,.62.83l5,9.74a6,6,0,0,0,5.39,3.31h6.42a6,6,0,0,0,6-6v-.62H115a6,6,0,0,0,6-6v-5a6,6,0,0,0-6-6,1.64,1.64,0,0,1-1.66-1l-5.18-10.15a4.34,4.34,0,0,0-1.24-1.66L94.46,59.24l-2.69,2.9,12.43,12.43c.21.21.21.41.41.41l5.18,10.15a6,6,0,0,0,5.39,3.31A1.86,1.86,0,0,1,117,90.32v5a1.86,1.86,0,0,1-1.86,1.86h-.41v-.41a6,6,0,0,0-6-6,1.64,1.64,0,0,1-1.66-1l-5.18-10.15a7.27,7.27,0,0,0-1-1.66l-6-6L92,74.78l6,6c.21.21.21.41.41.41l5.18,10.15A6,6,0,0,0,109,94.67a1.86,1.86,0,0,1,1.86,1.86v5a1.86,1.86,0,0,1-1.86,1.86h-6.42a1.64,1.64,0,0,1-1.66-1l-5-9.74a5.51,5.51,0,0,0-2.07-2.28l-17.4-11.6a2.07,2.07,0,0,1-.83-1L71.26,64.84l4.56,1.24a9.82,9.82,0,0,0,9.11-1.86,10.81,10.81,0,0,0,4.14-8.29h13.67l.21.62a10.34,10.34,0,0,0,7.46,6.84l1.45.41L117,79.13a5.29,5.29,0,0,0,2.49,3.11l17.4,11.6a2.86,2.86,0,0,1,.62.83l5,9.74a6,6,0,0,0,5.39,3.31h6.42a6,6,0,0,0,6-6v-.21h.41a6,6,0,0,0,6-6v-5a6,6,0,0,0-6-6,1.64,1.64,0,0,1-1.66-1l-5.18-10.15a4.34,4.34,0,0,0-1.24-1.66L140.24,59.24l-3.11,2.9,12.43,12.43c.21.21.21.41.41.41l5.18,10.15a6,6,0,0,0,5.39,3.31,1.86,1.86,0,0,1,1.86,1.86v5a1.86,1.86,0,0,1-1.86,1.86h-.41v-.41a6,6,0,0,0-6-6,1.64,1.64,0,0,1-1.66-1l-5.18-10.15a7.27,7.27,0,0,0-1-1.66l-6-6-2.9,2.9,6,6c.21.21.21.41.41.41l5.18,10.15a6,6,0,0,0,5.39,3.31,1.86,1.86,0,0,1,1.86,1.86v5a1.86,1.86,0,0,1-1.86,1.86H147.9a1.64,1.64,0,0,1-1.66-1l-5-9.74a5.51,5.51,0,0,0-2.07-2.28l-17.4-11.6a2.07,2.07,0,0,1-.83-1l-4.35-12.84,4.56,1.24A3.23,3.23,0,0,0,123.67,66.7ZM108.13,15.33a11,11,0,1,1,11,11A11.19,11.19,0,0,1,108.13,15.33ZM63,15.33a11,11,0,1,1,11,11A11.05,11.05,0,0,1,63,15.33Zm-45.36,0a11,11,0,1,1,11,11A11.05,11.05,0,0,1,17.61,15.33ZM42.67,52a10.73,10.73,0,0,0-9.74-6.42H28.59v4.14h4.35a6.45,6.45,0,0,1,6.42,6.42,6.28,6.28,0,0,1-2.49,5.18,6.73,6.73,0,0,1-5.59,1.24L20.51,59.87A6.56,6.56,0,0,1,16,55.72L12.64,45.57a6.24,6.24,0,0,1,1.66-6.63l9.32-9.53a12.15,12.15,0,0,0,4.76.83,14.92,14.92,0,0,0,11.81-5.8L41.43,24a6.24,6.24,0,0,1,6.63,1.66l7.46,7.46A5,5,0,0,1,57,35.63l-.41.41a10,10,0,0,0-2.49,10.77L55.72,52ZM88,52a10.73,10.73,0,0,0-9.74-6.42H74v4.14H78.3a6.45,6.45,0,0,1,6.42,6.42,6.28,6.28,0,0,1-2.49,5.18,6.73,6.73,0,0,1-5.59,1.24l-10.77-2.9a6.56,6.56,0,0,1-4.56-4.14L58,45.57a6.24,6.24,0,0,1,1.66-6.63L69,29.41a12.15,12.15,0,0,0,4.76.83,14.73,14.73,0,0,0,11.19-5.18L88,24a6.24,6.24,0,0,1,6.63,1.66l7.46,7.46a6.29,6.29,0,0,1,1,1.45l-1.24,1.24a10,10,0,0,0-2.49,10.77l1.66,5.18H88Zm18.64,3.52-3.31-9.94A6.24,6.24,0,0,1,105,38.94l9.53-9.32a17.65,17.65,0,0,0,4.76.83,14.92,14.92,0,0,0,11.81-5.8l1.24-.41A6.24,6.24,0,0,1,139,25.89l7.46,7.46a5.92,5.92,0,0,1,1.66,6L145,52.41H133.4a10.54,10.54,0,0,0-9.94-6.84h-4.35v4.14h4.35a6.45,6.45,0,0,1,6.42,6.42,6.28,6.28,0,0,1-2.49,5.18,6.73,6.73,0,0,1-5.59,1.24L111,59.87A6.54,6.54,0,0,1,106.68,55.52Z"/><path class="cls-2" d="M536.35,66.08l4.56-1.24-4.35,12.84a2.07,2.07,0,0,1-.83,1l-17.4,11.6a5.51,5.51,0,0,0-2.07,2.28l-5,9.74a1.64,1.64,0,0,1-1.66,1h-6.42a1.86,1.86,0,0,1-1.86-1.86v-5a1.86,1.86,0,0,1,1.86-1.86,6,6,0,0,0,5.39-3.31l5.18-10.15c.21,0,.21-.21.41-.41l6-6-2.9-2.9-6,6a7.27,7.27,0,0,0-1,1.66l-5.18,10.15a1.64,1.64,0,0,1-1.66,1,6,6,0,0,0-6,6v.41H497a1.86,1.86,0,0,1-1.86-1.86v-5A1.86,1.86,0,0,1,497,88.45a6,6,0,0,0,5.39-3.31L507.56,75c.21,0,.21-.21.41-.41L520.4,62.14l-3.11-2.9L504.87,71.67a4.34,4.34,0,0,0-1.24,1.66l-5.18,10.15a1.64,1.64,0,0,1-1.66,1,6,6,0,0,0-6,6v5a6,6,0,0,0,6,6h.41v.21a6,6,0,0,0,6,6h6.42A6,6,0,0,0,515,104.4l5-9.74a2.86,2.86,0,0,1,.62-.83L538,82.24a5.29,5.29,0,0,0,2.49-3.11l5.18-15.33,1.45-.41a10.34,10.34,0,0,0,7.46-6.84l.21-.62h13.67a10.81,10.81,0,0,0,4.14,8.29,9.82,9.82,0,0,0,9.11,1.86l4.56-1.24-4.35,12.84a2.07,2.07,0,0,1-.83,1l-17.4,11.6a5.51,5.51,0,0,0-2.07,2.28l-5,9.74a1.64,1.64,0,0,1-1.66,1h-6.42a1.86,1.86,0,0,1-1.86-1.86v-5a1.86,1.86,0,0,1,1.86-1.86A6,6,0,0,0,554,91.35l5.18-10.15c.21,0,.21-.21.41-.41l6-6-2.9-2.9-6,6a7.27,7.27,0,0,0-1,1.66l-5.18,10.15a1.64,1.64,0,0,1-1.66,1,6,6,0,0,0-6,6v.41h-.41a1.86,1.86,0,0,1-1.86-1.86v-5a1.86,1.86,0,0,1,1.86-1.86,6,6,0,0,0,5.39-3.31L552.92,75c.21,0,.21-.21.41-.41l12.43-12.43-2.69-2.9L550.65,71.67a4.34,4.34,0,0,0-1.24,1.66l-5.18,10.15a1.64,1.64,0,0,1-1.66,1,6,6,0,0,0-6,6v5a6,6,0,0,0,6,6H543v.62a6,6,0,0,0,6,6h6.42a6,6,0,0,0,5.39-3.31l5-9.74a2.86,2.86,0,0,1,.62-.83l17.4-11.6a5.29,5.29,0,0,0,2.49-3.11l5.18-15.33,1.45-.41A10.34,10.34,0,0,0,600.36,57l.21-.62h13.67a10.81,10.81,0,0,0,4.14,8.29,9.82,9.82,0,0,0,9.11,1.86l4.56-1.24L627.7,78.09a2.07,2.07,0,0,1-.83,1L609.27,90.52a5.51,5.51,0,0,0-2.07,2.28l-5,9.74a1.64,1.64,0,0,1-1.66,1h-6.42a1.86,1.86,0,0,1-1.86-1.86v-5a1.86,1.86,0,0,1,1.86-1.86,6,6,0,0,0,5.39-3.31l5.18-10.15c.21,0,.21-.21.41-.41l6-6-2.9-2.9L602,77.89a7.27,7.27,0,0,0-1,1.66L595.8,89.69a1.64,1.64,0,0,1-1.66,1,6,6,0,0,0-6,6v.41h-.41a1.86,1.86,0,0,1-1.86-1.86v-5a1.86,1.86,0,0,1,1.86-1.86,6,6,0,0,0,5.39-3.31L598.29,75c.21,0,.21-.21.41-.41l12.43-12.43-2.49-2.9L596.22,71.67A4.34,4.34,0,0,0,595,73.33L589.8,83.48a1.64,1.64,0,0,1-1.66,1,6,6,0,0,0-6,6v5a6,6,0,0,0,6,6h.41v.41a6,6,0,0,0,6,6H601a6,6,0,0,0,5.39-3.31l5-9.74A2.86,2.86,0,0,1,612,94l17.4-11.6a5.29,5.29,0,0,0,2.49-3.11L637,64l1.45-.41a10.34,10.34,0,0,0,7.46-6.84l.21-.83c2.07,0,4.56.41,6,1.66a3.76,3.76,0,0,1,1.24,2.9V80h4.14V60.49a7.82,7.82,0,0,0-2.69-6c-2.07-1.86-5-2.49-7.46-2.69L649,46.61a10,10,0,0,0-2.49-10.77l-8.49-8.49a14.83,14.83,0,0,0,6.42-12.22,15.12,15.12,0,0,0-30.24,0,16.15,16.15,0,0,0,.62,4.56,10.46,10.46,0,0,0-8.29,3.11l-7.66,7.46a15.81,15.81,0,0,0-1.66,2.28l-5-5a14.83,14.83,0,0,0,6.42-12.22,15.12,15.12,0,1,0-30.24,0,17.62,17.62,0,0,0,.83,4.56,10.89,10.89,0,0,0-9.53,2.9l-7,7.25c-.62.41-.83,1-1.24,1.45l-4.14-4.14a14.83,14.83,0,0,0,6.42-12.22,15.12,15.12,0,0,0-30.24,0,16.15,16.15,0,0,0,.62,4.56,10.46,10.46,0,0,0-8.29,3.11l-7.46,7.46a10.06,10.06,0,0,0-2.9,9.74l2.9,12h-35v4.14H523.3a10.81,10.81,0,0,0,4.14,8.29,10.56,10.56,0,0,0,6.42,2.28A3.23,3.23,0,0,0,536.35,66.08Zm2.07-39.77a11,11,0,1,1,11-11A11.19,11.19,0,0,1,538.42,26.31Zm45.16,0a11,11,0,1,1,11-11A11.05,11.05,0,0,1,583.58,26.31Zm45.36,0a11,11,0,1,1,11-11A11.05,11.05,0,0,1,628.95,26.31ZM601.81,52l1.66-5.18A10,10,0,0,0,601,36l-.41-.41A5,5,0,0,1,602,33.14l7.46-7.46A6.24,6.24,0,0,1,616.1,24l1.24.41a14.92,14.92,0,0,0,11.81,5.8,12.15,12.15,0,0,0,4.76-.83l9.32,9.53a6.24,6.24,0,0,1,1.66,6.63l-3.31,10.15A6.56,6.56,0,0,1,637,59.87l-10.77,2.69a6.73,6.73,0,0,1-5.59-1.24,6.28,6.28,0,0,1-2.49-5.18,6.45,6.45,0,0,1,6.42-6.42h4.35V45.57H624.6A10.73,10.73,0,0,0,614.86,52Zm-32.31-.21H556.45l1.66-5.18a10,10,0,0,0-2.49-10.77l-1.24-1.24a6.29,6.29,0,0,1,1-1.45l7.46-7.46A6.24,6.24,0,0,1,569.5,24l3.11,1a14.73,14.73,0,0,0,11.19,5.18,12.15,12.15,0,0,0,4.76-.83l9.32,9.53a6.24,6.24,0,0,1,1.66,6.63l-3.31,9.94a6.56,6.56,0,0,1-4.56,4.14l-10.77,2.9a6.73,6.73,0,0,1-5.59-1.24,6.28,6.28,0,0,1-2.49-5.18,6.45,6.45,0,0,1,6.42-6.42h4.35V45.57h-4.35A10.73,10.73,0,0,0,569.5,52Zm-23,8.08-10.77,2.69a6.73,6.73,0,0,1-5.59-1.24,6.28,6.28,0,0,1-2.49-5.18,6.45,6.45,0,0,1,6.42-6.42h4.35V45.57h-4.35a10.54,10.54,0,0,0-9.94,6.84h-11.6l-3.11-13.05a5.92,5.92,0,0,1,1.66-6l7.46-7.46a6.24,6.24,0,0,1,6.63-1.66l1.24.41a14.92,14.92,0,0,0,11.81,5.8,17.65,17.65,0,0,0,4.76-.83l9.53,9.32a6.24,6.24,0,0,1,1.66,6.63l-3.31,9.94A6.54,6.54,0,0,1,546.5,59.87Z"/><text class="cls-3" transform="translate(184.93 85.97) scale(1.02 1)">Tug<tspan class="cls-4" x="87.35" y="0"> </tspan><tspan class="cls-5" x="101.67" y="0">O</tspan><tspan class="cls-6" x="132.72" y="0">f</tspan><tspan class="cls-7" x="157.69" y="0"> </tspan><tspan class="cls-8" x="171.12" y="0">W</tspan><tspan class="cls-9" x="219.89" y="0">ar</tspan></text></g></g></svg>